# xmcd
#
# Track frame offsets:
#	150
#	26063
#	44294
#	63265
#	82603
#	104921
#	127799
#	144950
#	167291
#	185179
#	197446
#	217608
#	236150
#	259753
#	280521
#	301508
#
# Disc length: 4288
#
# Revision: 1
# Processed by: cddbd v1.5.1PL0 Copyright (c) Steve Scherf et al.
# Submitted via: Axialis_AX_CDPlayer 2.6
# Normalized: r0:TDELIM( - )
#
DISCID=c810be10
DTITLE=Various Artist - Mix 1
DYEAR=1900
DGENRE=
TTITLE0=BIG - Fucking You Tonite
TTITLE1=BIG - Hypnotize
TTITLE2=BIG - Big Poppa
TTITLE3=BIG - One More Chance
TTITLE4=BIG feat Eminem - Dead Wrong
TTITLE5=BIG - Goin Back to Cali
TTITLE6=Bone Thugz and Harmony - Crossroads
TTITLE7=Outkast - Whole World
TTITLE8=Dr. Dre and Snoop Dog - Aint nothing but a G Thang
TTITLE9=Dr. Dre and Snoop Dog - Next Episode
TTITLE10=Tupac - Untill the End of Times
TTITLE11=Tupac - Aint Nothin but a Gangster Party
TTITLE12=Tupac - Picture Me Rollin
TTITLE13=Tupac - It's All About You
TTITLE14=Tupac - Dear Mama
TTITLE15=Tupac - Keep Your Hear Up
EXTD=Rap Mix 1
EXTT0=
EXTT1=
EXTT2=
EXTT3=
EXTT4=
EXTT5=
EXTT6=
EXTT7=
EXTT8=
EXTT9=
EXTT10=
EXTT11=
EXTT12=
EXTT13=
EXTT14=
EXTT15=
PLAYORDER=
